<?xml version="1.0" encoding="UTF-8"?>
<!DOCTYPE svg PUBLIC "-//W3C//DTD SVG 1.1//EN" "http://www.w3.org/Graphics/SVG/1.1/DTD/svg11.dtd">
<!-- Creator: CorelDRAW -->
<svg xmlns="http://www.w3.org/2000/svg" xml:space="preserve" width="14in" height="15in" version="1.1" shape-rendering="geometricPrecision" text-rendering="geometricPrecision" image-rendering="optimizeQuality" fill-rule="evenodd" clip-rule="evenodd"
viewBox="0 0 14000 15000"
 xmlns:xlink="http://www.w3.org/1999/xlink"
 xmlns:xodm="http://www.corel.com/coreldraw/odm/2003">
 <g id="Layer_x0020_1">
  <metadata id="CorelCorpID_0Corel-Layer"/>
  <path fill="#000000" d="M4576.53 584.84l9188.38 0 0 0.27 74.03 0 0 9944.35c12.05,50.07 15.13,102.68 5.49,152.88 -1.61,7.9 -3.35,15.66 -5.49,23.43l0 123.56 -60.65 0c-29.72,42.97 -65.19,82.06 -98.8,118.21 48.33,13.12 84.74,27.71 132.93,40.96 9.5,2.68 6.69,10.57 -2.01,12.85 -127.98,32.67 -251.94,82.2 -357.3,166.8 -109.1,87.55 -182.33,220.48 -200,365.33 -31.86,260.65 63.05,517.41 159.84,750.61 2.95,7.09 15.67,3.21 16.2,-4.82 8.03,-143.78 65.59,-282.07 156.09,-387.69 4.28,-5.09 12.45,-11.78 5.76,-13.26 -4.15,-0.94 -6.83,3.21 -10.57,4.82 -27.04,12.19 -45.92,34.27 -68.01,54.09 -24.77,22.09 -37.62,52.61 -67.87,72.56 -16.6,-94.51 -30.25,-193.17 -5.35,-287.56 28.52,-107.36 135.07,-175.37 235.21,-182.6 10.31,-0.67 21.42,-2.28 32,-0.54 50.47,7.9 96.12,35.07 136.41,67.2 21.15,16.87 37.75,39.49 63.05,51 24.1,10.84 45.92,14.86 72.83,25.57 -19.28,19.55 -35.07,43.51 -49.13,68.81 -7.63,13.79 -12.18,28.38 -12.98,44.71 -3.21,62.12 36.55,113.12 40.96,174.04 0.4,5.62 4.69,10.17 2.81,16.6 -0.94,3.21 1.74,4.15 -0.54,8.7 -2.41,4.42 2.14,2.41 1.47,5.62 -23.83,137.09 -161.98,167.87 -271.63,153.42 -55.56,-7.36 -114.73,19.81 -146.19,73.36 -30.52,51.67 -50.34,102.01 -64.93,161.85 -27.71,113.79 43.11,218.21 37.62,330.13 -2.94,56.76 -18.07,114.19 -46.72,161.72 -32.13,53.15 -98.4,79.52 -130.12,125.44 120.89,-15.4 234.41,-84.47 356.09,-71.09 136.28,14.86 260.11,115.84 304.56,255.36 -69.61,8.57 -123.83,53.03 -177.92,94.49 -52.34,40.07 -119.81,60.61 -182.87,44.19 -71.89,-18.71 -137.62,-64.27 -177.91,-130.11 -37.89,-61.91 -91.44,-113.05 -167.34,-119.69 6.02,171.37 -7.1,345.19 -35.34,512.8 -32,191.54 -94.78,395.85 -269.62,492.12 -6.29,3.45 -4.02,11.71 2.94,11.57 63.86,-1.57 117.94,18.41 178.19,45.86 81.26,-103.33 124.1,-245.68 240.96,-312.67 103.35,-59.14 215.8,-72.26 330.93,-38.85 -28.11,47.27 -42.44,100.13 -48.73,154.78 -6.29,55.64 -49,103.33 -96.92,123.58 -45.25,19.07 -98.66,11.14 -147.39,11.39 -51.54,0.27 -108.7,-1.46 -147.66,45.65 64.93,3.62 135.21,-7.94 196.26,19.67 72.82,32.89 143.64,79.74 184.61,152.69 37.35,66.21 59.17,142.29 61.18,217.97 2.01,73.88 -22.09,157.87 48.06,210.06 -76.57,-17.72 -96.79,-97.79 -143.91,-150.13 -44.31,-49.31 -111.52,-64.53 -158.1,-114.31 -44.58,-47.63 -41.9,-121.06 -64.52,-180.31 -12.45,-32.78 -41.5,-60.13 -69.75,-75.25 -25.04,-13.33 -65.33,-24.83 -79.52,7.7 4.82,12.38 12.05,13.43 20.22,17.87 10.44,5.65 21.15,7.37 32.53,6.44 24.77,-2.14 49.8,9.3 62.79,32.26 4.95,8.53 7.09,18.62 4.28,27.76 -8.43,26.31 -31.46,46.44 -56.76,51.88 -10.18,2.19 -20.62,5.02 -26.37,14.54 -7.9,13.28 -21.42,24.22 -36.41,21.97 -45.65,-6.96 -71.49,-53.71 -101.34,-88.06 -16.87,56.26 31.99,99.83 74.97,121.53 20.75,10.51 44.18,17.36 68.67,22.96 23.7,5.38 43.37,-0.58 67.61,8.73 100,38.43 87.15,182.14 189.69,223.35 -76.3,85.59 -210.58,78.8 -304.82,25.41 -102.54,-58.15 -184.2,-181.72 -159.17,-313.86 1.61,-8.74 -8.43,-7.59 -10.98,0.47 -38.56,124.82 -118.88,231.66 -227.45,293.31 -93.04,52.87 -204.15,48.69 -305.36,33.16 -5.62,-0.85 -14.46,-7.9 -8.03,-11.77 3.61,-2.14 2.81,-5.13 6.02,-6.64 132.13,-59.41 178.98,-206.83 269.35,-310.15 43.51,-49.84 98.93,-89.43 157.3,-116.99 24.37,-11.44 52.35,-11.81 78.98,-13.33 14.46,-0.78 27.71,-5.22 41.77,-12.76 14.19,-7.58 19.28,-14.13 31.19,-37.23 -103.75,-71.9 -233.87,-43.78 -340.57,4.34 -105.89,47.65 -226.51,81.83 -341.78,49.79 -5.09,-1.46 -9.24,-2.25 -15.66,-1.26 -7.09,1.1 -8.3,2.99 -14.06,5.81 -155.83,76.02 -321.29,-28.25 -413.53,-157.35 -5.63,30.43 5.89,56.84 4.95,85.65 -0.94,30.17 0.94,59.83 0.27,89.68 -1.47,65.83 -23.3,131.37 -57.17,184.5 102.41,99.41 246.06,164.57 384.88,135.49 152.34,-31.85 276.98,-161.49 329.19,-314.07 2.81,-8.42 12.72,-12.13 14.59,-2.57 40.3,204.78 -114.06,381.17 -291.84,427.34 -174.3,45.29 -355.43,-56.11 -481.4,-182.45 -69.08,90 -145.92,164.83 -254.89,190.82 81.13,-101.34 39.22,-233.7 68.81,-350.57 -66.13,-33.31 -147.66,-54.59 -217.01,-53.55 -73.22,1.05 -186.35,18.77 -188.22,108.83 -1.87,86.85 -2.81,165.5 -34.41,242.22 -37.48,90.62 -90.9,168.33 -166.67,224.44 -275.51,203.79 -689.57,104.32 -875.52,-187.53 -104.56,-25.62 -204.96,-64.37 -295.06,-125.87 -49,-33.47 -96.39,-68.45 -153.15,-86.65 -51.28,-16.52 -103.35,8.06 -155.29,18.04 11.91,-21.7 28.92,-40.57 49,-55.22l-9498.69 0 0 -0.27 -74.03 0 0 -10244.15 69.21 0c33.47,-59.17 80.46,-111.51 124.23,-158.5 -48.19,-13.12 -84.74,-27.85 -132.93,-41.1 -9.5,-2.55 -6.56,-10.44 2.14,-12.72 127.85,-32.67 251.81,-82.33 357.17,-166.94 109.11,-87.42 182.33,-220.35 200,-365.2 32,-260.65 -63.06,-517.54 -159.84,-750.61 -2.94,-7.23 -15.66,-3.21 -16.2,4.82 -8.04,143.78 -65.6,281.93 -156.09,387.69 -4.28,4.95 -12.32,11.65 -5.62,13.12 4.15,0.94 6.69,-3.08 10.44,-4.82 27.04,-12.05 45.92,-34.14 68.01,-53.95 24.76,-22.22 37.61,-52.61 67.87,-72.56 16.6,94.51 30.39,193.17 5.35,287.42 -28.51,107.5 -135.07,175.5 -235.07,182.6 -10.31,0.8 -21.56,2.28 -32.13,0.67 -50.47,-8.03 -96.12,-35.21 -136.42,-67.2 -21.02,-16.87 -37.61,-39.49 -63.05,-51.01 -23.96,-10.84 -45.78,-14.86 -72.83,-25.57 19.28,-19.68 35.07,-43.51 49.13,-68.81 7.77,-13.79 12.19,-28.38 12.99,-44.85 3.21,-61.98 -36.41,-112.99 -40.96,-173.9 -0.4,-5.76 -4.55,-10.18 -2.81,-16.6 0.94,-3.21 -1.74,-4.28 0.67,-8.7 2.28,-4.42 -2.14,-2.41 -1.61,-5.62 23.83,-137.08 161.98,-167.87 271.62,-153.42 55.56,7.23 114.86,-19.81 146.32,-73.36 30.39,-51.81 50.2,-102.01 64.79,-161.85 27.85,-113.79 -43.11,-218.34 -37.48,-330.13 2.81,-56.76 17.94,-114.32 46.59,-161.72 32.13,-53.15 98.53,-79.52 130.12,-125.57 -120.89,15.4 -234.41,84.47 -355.96,71.22 -136.28,-14.86 -260.11,-115.93 -304.69,-255.43 69.74,-8.57 123.96,-53.01 178.05,-94.38 52.34,-40.16 119.68,-60.78 182.87,-44.31 71.76,18.74 137.49,64.39 177.78,130.13 37.89,61.85 91.57,113.12 167.34,119.68 -6.02,-171.36 7.23,-345.12 35.34,-512.73 32.13,-191.57 94.78,-395.86 269.75,-492.11 6.16,-3.48 3.88,-11.78 -2.94,-11.51 -63.99,1.47 -117.94,-18.48 -178.31,-45.92 -81.26,103.35 -123.96,245.65 -240.97,312.59 -103.35,59.17 -215.67,72.29 -330.93,38.96 28.11,-47.39 42.57,-100.27 48.73,-154.89 6.29,-55.69 49,-103.21 96.92,-123.56 45.25,-19.14 98.8,-11.11 147.39,-11.38 51.54,-0.27 108.7,1.47 147.66,-45.65 -64.8,-3.61 -135.21,7.9 -196.26,-19.68 -72.83,-32.93 -143.65,-79.79 -184.61,-152.75 -37.22,-66.13 -59.04,-142.31 -61.18,-217.81 -2.01,-74.03 22.22,-157.97 -48.06,-210.18 76.57,17.81 96.79,97.86 143.91,150.2 44.44,49.26 111.65,64.53 158.24,114.33 44.44,47.66 41.77,121.02 64.39,180.19 12.45,32.8 41.5,60.24 69.74,75.37 25.04,13.25 65.33,24.77 79.52,-7.76 -4.69,-12.31 -11.91,-13.39 -20.08,-17.8 -10.44,-5.76 -21.29,-7.5 -32.67,-6.43 -24.77,2.01 -49.67,-9.37 -62.79,-32.39 -4.82,-8.44 -7.09,-18.48 -4.15,-27.71 8.3,-26.37 31.33,-46.45 56.63,-51.94 10.17,-2.14 20.61,-4.96 26.37,-14.46 7.9,-13.25 21.56,-24.23 36.41,-21.95 45.65,6.96 71.62,53.68 101.48,88.09 16.73,-56.22 -32,-99.87 -75.1,-121.56 -20.75,-10.44 -44.18,-17.41 -68.68,-23.03 -23.56,-5.35 -43.37,0.67 -67.6,-8.7 -100,-38.42 -87.15,-182.06 -189.7,-223.3 76.44,-85.68 210.58,-78.85 304.82,-25.44 102.55,58.1 184.21,181.67 159.17,313.8 -1.61,8.83 8.43,7.63 10.98,-0.4 38.55,-124.9 119.01,-231.6 227.44,-293.31 93.04,-52.88 204.29,-48.73 305.36,-33.2 5.76,0.94 14.59,8.03 8.17,11.78 -3.61,2.28 -2.81,5.09 -6.16,6.69 -132.13,59.44 -178.99,206.83 -269.22,310.18 -43.64,49.8 -98.93,89.29 -157.3,116.87 -24.36,11.51 -52.48,11.91 -79.12,13.39 -14.32,0.8 -27.57,5.22 -41.77,12.85 -14.19,7.5 -19.28,14.06 -31.19,37.08 103.75,72.02 233.87,43.91 340.7,-4.28 105.76,-47.66 226.37,-81.8 341.64,-49.8 5.22,1.47 9.37,2.28 15.66,1.2 7.1,-1.07 8.3,-2.94 14.19,-5.76 155.69,-75.91 321.29,28.24 413.39,157.43 5.62,-30.39 -5.89,-56.9 -4.95,-85.68 0.94,-30.12 -0.94,-59.84 -0.27,-89.69 1.47,-65.86 23.43,-131.46 57.16,-184.47 -102.41,-99.47 -245.92,-164.66 -384.88,-135.48 -152.21,31.72 -276.98,161.44 -329.19,314.06 -2.81,8.3 -12.59,12.05 -14.46,2.54 -40.43,-204.82 114.06,-381.13 291.84,-427.31 174.3,-45.25 355.29,56.09 481.4,182.33 68.94,-89.83 145.92,-164.8 254.76,-190.76 -80.99,101.34 -39.09,233.74 -68.81,350.61 66.13,33.33 147.79,54.62 217,53.55 73.23,-1.07 186.35,-18.74 188.22,-108.83 1.87,-86.88 2.94,-165.46 34.54,-242.17 37.35,-90.63 90.76,-168.41 166.54,-224.5 275.5,-203.75 689.7,-104.28 875.52,187.56 104.69,25.57 204.96,64.39 295.05,125.84 49.13,33.47 96.52,68.54 153.15,86.75 51.41,16.47 103.48,-8.17 155.29,-18.2 -40.43,73.63 -138.96,114.46 -213.26,70.28 6.03,8.3 11.92,16.74 17.81,25.3l422.76 0zm3992.84 193.98l-4350.68 0c-4.28,28.78 -13.65,56.09 -29.72,79.79 -20.75,30.52 -47.39,53.55 -81.93,67.47 34,-42.7 46.45,-94.65 44.31,-147.26l-56.9 0 0 -172.16c-33.6,-52.08 -79.79,-97.86 -131.33,-130.13 -47.93,-29.98 -95.58,-60.64 -155.43,-67.33 76.71,228.65 29.59,517.41 -154.75,671.9 -98.8,82.6 -225.17,119.01 -347.26,100.94 -127.98,-18.88 -242.98,-124.9 -276.85,-256.9 -15.53,-60.11 -10.44,-128.65 13.26,-184.87 28.24,-66.94 76.04,-129.32 138.56,-162.25 114.19,-60.24 273.1,-27.58 334.01,100.94 60.65,128.11 -86.48,294.52 -208.17,227.85 -61.85,-33.87 -75.77,-130.93 -21.02,-173.9 50.2,-39.22 136.41,2.14 120.89,75.5 -1.47,6.83 1.2,12.05 5.22,12.45 3.48,0.4 6.29,-2.41 9.91,-6.69 60.91,-71.89 6.02,-181.67 -73.5,-200.81 -80.46,-19.28 -163.32,33.6 -201.61,109.91 -36.55,72.56 -36.41,166 7.5,235.35 43.65,68.81 111.52,114.59 189.43,126.64 161.85,25.17 317.68,-96.65 372.43,-256.5 51.81,-151.28 42.97,-326.51 -42.7,-464 -114.73,-41.63 -239.36,-65.2 -361.72,-61.05 -132.67,4.42 -267.47,46.19 -370.02,139.63 -60.11,54.75 -97.32,128.92 -143.51,196.52 -42.97,62.92 -107.77,106.43 -179.12,123.43 -123.7,29.45 -252.61,3.21 -369.35,-50.07 -59.04,118.74 -138.82,222.9 -241.77,304.16 53.01,124.9 74.03,260.91 47.26,394.92 -2.81,13.79 -4.15,26.11 -10.71,38.29 -68.14,126.37 -167.87,225.17 -275.37,311.39 -5.76,4.69 -18.07,-1.61 -13.93,-8.57 32.4,-53.55 53.02,-104.69 55.29,-168.01 2.14,-57.43 -11.25,-102.81 -14.86,-162.12 -8.57,-140.16 161.05,-187.82 195.05,-305.89 1.34,-4.69 -5.09,-15.66 -6.29,-15.8 -1.07,0 -11.91,-3.08 -13.52,0.67 -54.62,117.67 -172.96,215.13 -301.48,203.08 -62.52,-5.89 -115.53,-45.52 -162.52,-86.21 -51.41,-44.18 -99.46,-98.67 -121.69,-167.07 -2.28,-6.96 5.89,-12.18 10.98,-7.23 31.19,29.85 73.89,46.85 115.66,44.04 38.96,-2.68 74.17,-28.51 110.58,-40.7 36.55,-12.31 79.92,-24.09 114.59,-2.54 36.68,23.03 68.68,51.94 110.71,61.98 11.24,2.68 21.15,7.36 32.93,2.28 3.35,-1.47 6.03,-1.61 9.11,-2.28 11.65,-2.94 23.29,-8.03 31.59,-17.54 14.06,-16.6 30.66,-30.12 34.41,-55.82 -37.48,9.64 -76.71,10.17 -112.98,24.23 -12.72,4.82 -27.18,6.69 -37.75,-3.75 -9.37,-9.51 -19.55,-16.07 -23.43,-28.92 -3.21,-10.57 -0.67,-22.36 8.03,-28.52 3.75,-2.68 6.96,-5.09 10.98,-7.5 9.77,-5.89 20.35,-6.56 31.46,-6.29 4.28,0.13 7.76,-3.48 7.63,-8.17 -0.27,-15 4.96,-27.85 13.12,-39.76 10.44,-15.26 26.77,-21.96 41.23,-32.93 -15.13,-14.06 -31.46,-23.3 -50.74,-28.65 -10.58,-2.94 -20.22,-1.2 -31.06,1.2 -78.98,16.74 -123.03,100.81 -200.94,119.68 -66.27,16.06 -126.37,-41.37 -194.11,-22.63 -7.36,2.01 -13.65,-6.29 -10.17,-12.98 22.22,-44.31 48.86,-84.87 67.34,-130.93 -103.08,-9.24 -210.58,8.97 -302.55,57.56 -111.92,59.04 -215.53,150.87 -268.94,273.23 -45.11,103.22 -57.17,218.74 -69.61,331.46 -12.18,108.7 -15.26,217.41 -13.25,329.86 70.95,-65.33 139.36,-136.81 219.81,-189.83 68.54,-44.98 143.91,-79.25 225.44,-83.27 10.85,-0.54 20.35,-1.61 31.19,-1.07 154.09,7.77 289.03,104.29 401.75,206.3 -65.87,-6.96 -124.23,-10.98 -186.22,6.56 -74.96,21.15 -123.43,85.14 -189.56,125.7 -115.13,70.68 -257.17,47.12 -382.33,27.31 -7.23,-1.2 -6.3,5.63 0.4,8.7 108.57,49.13 218.48,114.46 287.42,219.15 66.67,100.94 100.4,227.04 77.64,349.54 36.41,55.16 97.06,87.82 159.04,94.52 10.31,1.2 21.29,1.34 31.33,-1.34 31.46,-8.17 61.85,-25.3 89.29,-42.7 30.52,-19.28 63.32,-44.71 86.61,-67.74 -93.17,-19.28 -170.02,16.46 -257.03,43.11 20.48,-156.76 157.43,-260.51 291.3,-292.11 58.91,-13.92 126.51,-28.11 183.27,-2.41 65.06,29.32 131.46,63.32 187.28,106.16 -40.7,19.14 -72.29,32.66 -102.68,58.77 -36.68,31.59 -67.2,68.01 -89.02,112.05 -19.95,40.43 -33.87,82.33 -66.67,114.06 -34.14,32.8 -65.2,60.24 -106.03,82.6 -145.25,79.65 -318.07,2.81 -429.59,-102.41 -26.64,77.38 -60.11,146.86 -113.79,202.81 0.54,-87.15 -37.35,-169.35 -99.33,-222.23 -36.81,-31.19 -77.65,-57.96 -101.74,-102.14 -18.74,-34.14 -24.76,-75.77 -14.72,-112.32 21.15,-77.38 77.65,-152.07 56.22,-234.67 -21.55,-83.67 -114.59,-131.6 -190.5,-88.76 32.13,40.3 88.89,69.88 105.76,127.18 7.76,26.78 -1.07,57.3 -26.91,67.34 -24.09,9.24 -45.78,-4.82 -67.87,-13.92 -8.97,-3.75 -17.41,-5.89 -26.64,-1.34 -14.19,7.36 -27.84,11.51 -41.9,16.73 -9.24,3.35 -20.08,1.34 -27.44,-6.02 -26.24,-25.7 -27.44,-65.33 -27.71,-102.68 -0.13,-8.44 -6.69,-8.17 -10.44,-0.13 -25.7,55.42 0.94,114.46 34,158.9 36.68,49.27 100.67,66.13 142.04,110.71 37.75,40.83 60.51,99.2 55.15,156.76 -5.09,54.35 -32.13,103.21 -40.3,156.9 -0.8,5.62 -2.68,10.84 -2.01,16.87 0.67,6.29 3.61,10.57 5.49,16.47 10.98,35.61 26.24,63.32 33.6,103.08 -57.83,-47.26 -120.35,-91.57 -188.35,-121.42 -10.18,-4.55 -20.08,-10.04 -31.73,-10.04 -7.36,0 -13.39,-1.74 -21.15,-2.01 -6.29,-0.27 -8.3,-2.81 -19.14,-0.67 54.22,155.69 105.09,316.33 140.43,477.78 35.07,160.11 57.97,333.88 -5.35,488.76 -36.95,90.63 -84.61,171.76 -146.85,243.65 -60.78,70.42 -135.35,121.96 -204.15,182.33 -53.82,47.39 -100.81,103.88 -137.89,166.67l0 9994.72 9471.25 0c-1.07,-9.74 -1.34,-18.93 -0.4,-28.77 3.35,-32.94 12.98,-64.47 31.33,-91.3 20.61,-30.43 47.26,-53.44 81.93,-67.51 -42.7,53.66 -51.68,121.94 -40.03,187.58l18.47 0 0 65.37c7.76,19.71 17,38.58 27.58,56.05 34,56.43 82.73,106.27 137.75,140.62 47.93,29.91 95.59,60.6 155.43,67.3 -76.57,-228.68 -29.59,-517.44 154.89,-671.81 98.66,-82.62 225.04,-119.02 347.13,-101.08 127.98,18.87 242.98,125.04 276.98,256.96 15.39,60.13 10.31,128.7 -13.39,184.91 -28.11,66.89 -75.91,129.32 -138.56,162.32 -114.19,60.14 -273.09,27.5 -334.01,-101.03 -60.64,-128.02 86.48,-294.46 208.17,-227.85 61.85,33.95 75.91,130.95 21.02,173.88 -50.2,39.21 -136.42,-2.1 -120.75,-75.57 1.34,-6.75 -1.34,-11.97 -5.35,-12.4 -3.48,-0.36 -6.29,2.46 -9.91,6.64 -60.91,72.01 -6.02,181.83 73.63,200.92 80.46,19.3 163.19,-33.67 201.48,-109.92 36.55,-72.63 36.41,-165.98 -7.5,-235.37 -43.64,-68.86 -111.52,-114.62 -189.43,-126.66 -161.85,-25.05 -317.67,96.7 -372.43,256.61 -51.81,151.23 -42.97,326.47 42.84,463.96 114.59,41.62 239.23,65.1 361.59,61.02 132.67,-4.44 267.61,-46.23 370.15,-139.57 60.11,-54.74 97.32,-128.94 143.38,-196.56 42.97,-62.96 107.76,-106.47 179.12,-123.47 123.7,-29.39 252.75,-3.13 369.35,50.15 59.04,-118.86 138.82,-222.97 241.77,-304.18 -53.01,-124.93 -74.03,-260.95 -47.12,-394.88 2.68,-13.8 4.15,-26.15 10.71,-38.33 68.14,-126.5 167.74,-225.17 275.37,-311.45 5.62,-4.61 17.94,1.67 13.92,8.52 -32.53,53.55 -53.15,104.75 -55.42,168.07 -2.14,57.47 11.38,102.81 14.99,162.16 8.43,140.15 -161.05,187.74 -195.05,305.87 -1.34,4.75 5.09,15.58 6.16,15.74 1.07,0.11 11.92,3.08 13.66,-0.68 54.48,-117.61 172.83,-215.13 301.34,-203 62.52,5.91 115.53,45.6 162.65,86.17 51.27,44.19 99.33,98.73 121.69,167.03 2.14,7.06 -6.02,12.24 -11.11,7.32 -31.19,-29.87 -73.9,-46.96 -115.67,-44.08 -38.96,2.72 -74.17,28.5 -110.58,40.79 -36.55,12.29 -79.92,24.06 -114.59,2.39 -36.68,-22.91 -68.54,-51.87 -110.71,-61.91 -11.24,-2.72 -21.15,-7.31 -32.93,-2.29 -3.35,1.46 -5.89,1.57 -8.97,2.34 -11.78,2.88 -23.43,7.95 -31.59,17.52 -14.19,16.52 -30.66,30.12 -34.41,55.74 37.35,-9.68 76.57,-10.2 112.85,-24.16 12.72,-4.91 27.18,-6.8 37.75,3.78 9.5,9.46 19.54,16 23.43,28.86 3.35,10.67 0.67,22.38 -8.03,28.56 -3.75,2.66 -6.96,5.11 -10.84,7.47 -9.91,5.92 -20.48,6.64 -31.59,6.28 -4.28,-0.11 -7.76,3.51 -7.63,8.15 0.4,14.95 -4.82,27.87 -12.98,39.69 -10.58,15.33 -26.78,22.02 -41.37,33.05 15.13,13.96 31.59,23.27 50.74,28.61 10.71,2.92 20.21,1.19 31.06,-1.09 78.98,-16.9 123.16,-100.93 201.07,-119.81 66.26,-16.05 126.24,41.37 194.11,22.7 7.36,-2 13.52,6.17 10.04,12.96 -22.22,44.3 -48.87,84.87 -67.2,130.95 102.94,9.2 210.44,-8.94 302.41,-57.52 111.92,-59.15 215.54,-150.87 268.95,-273.28 45.11,-103.28 57.16,-218.85 69.75,-331.44 12.05,-108.77 15.26,-217.54 13.12,-329.93 -70.95,65.32 -139.36,136.86 -219.82,189.78 -68.41,45.13 -143.91,79.39 -225.44,83.31 -10.84,0.52 -20.35,1.62 -31.19,1.09 -153.95,-7.68 -289.03,-104.38 -401.75,-206.3 66,6.95 124.23,10.93 186.35,-6.59 74.83,-21.08 123.43,-85.19 189.43,-125.66 115.13,-70.75 257.17,-47.18 382.33,-27.35 7.23,1.15 6.29,-5.6 -0.4,-8.69 -108.44,-49.1 -218.48,-114.41 -287.42,-219.09 -66.54,-100.94 -100.41,-227.18 -77.65,-349.54 -36.28,-55.29 -97.06,-87.82 -158.91,-94.65 -10.44,-1.07 -21.28,-1.2 -31.33,1.34 -31.46,8.17 -61.98,25.44 -89.43,42.84 -30.52,19.28 -63.19,44.58 -86.48,67.61 93.04,19.41 169.88,-16.33 256.9,-42.97 -20.35,156.76 -157.43,260.51 -291.3,292.11 -58.9,13.92 -126.37,27.98 -183.27,2.41 -65.06,-29.45 -131.33,-63.45 -187.29,-106.16 40.7,-19.15 72.43,-32.67 102.68,-58.77 36.68,-31.59 67.2,-68.14 89.02,-112.19 20.08,-40.43 33.87,-82.2 66.67,-113.92 34.14,-32.8 65.2,-60.24 106.16,-82.6 145.12,-79.65 317.94,-2.81 429.59,102.41 26.5,-77.38 60.11,-146.99 113.65,-202.95 -0.54,87.28 37.35,169.48 99.47,222.23 36.81,31.32 77.51,58.1 101.74,102.14 18.61,34.27 24.63,75.91 14.59,112.32 -21.15,77.38 -77.51,152.21 -56.23,234.81 21.69,83.67 114.59,131.46 190.5,88.76 -32.13,-40.3 -88.89,-69.88 -105.63,-127.31 -7.9,-26.78 0.94,-57.3 26.78,-67.2 24.1,-9.24 45.92,4.82 67.87,13.92 9.1,3.75 17.4,5.89 26.64,1.2 14.33,-7.23 27.85,-11.51 41.9,-16.6 9.24,-3.35 20.08,-1.34 27.58,5.89 26.24,25.7 27.31,65.46 27.71,102.81 0.13,8.3 6.69,8.03 10.31,0.13 25.83,-55.56 -0.94,-114.46 -34,-159.04 -36.68,-49.13 -100.67,-66 -141.9,-110.71 -37.75,-40.7 -60.51,-99.2 -55.29,-156.76 5.09,-54.22 32.13,-103.08 40.3,-156.76 0.8,-5.62 2.68,-10.84 2.01,-16.87 -0.67,-6.29 -3.61,-10.57 -5.49,-16.6 -10.98,-35.48 -26.11,-63.19 -33.6,-102.95 57.83,47.26 120.35,91.43 188.49,121.42 10.17,4.55 20.08,10.04 31.59,10.04 7.36,0 13.39,1.61 21.15,2.01 6.29,0.27 8.3,2.68 19.15,0.54 -54.09,-155.56 -104.96,-316.2 -140.43,-477.65 -35.07,-160.11 -57.83,-333.87 5.35,-488.76 36.95,-90.63 84.61,-171.76 146.86,-243.65 60.91,-70.42 135.48,-122.09 204.15,-182.47 38.56,-33.87 73.5,-72.42 104.02,-114.46l0 -10006.6 -5087.77 0zm1851.84 13984.56c128.52,128.96 322.89,171.26 491.57,129.74 177.51,-43.66 352.08,-197.25 333.61,-412.23 -0.4,-4.17 -0.13,-2.92 -2.41,-7.99 -4.28,-9.31 -7.5,-1.72 -11.38,4.23 -176.57,269.74 -518.75,363.13 -805.5,272.71 -4.15,-1.26 -11.38,1.62 -11.92,3.19 -0.67,1.63 2.95,7.23 6.03,10.36zm-6842.42 -14526.74c-128.52,-129.06 -322.76,-171.36 -491.57,-129.86 -177.51,43.78 -351.95,197.33 -333.61,412.32 0.4,4.15 0.27,2.95 2.54,8.04 4.15,9.24 7.5,1.74 11.38,-4.28 176.57,-269.75 518.75,-363.06 805.5,-272.7 4.02,1.34 11.24,-1.61 11.91,-3.21 0.54,-1.61 -3.08,-7.23 -6.16,-10.31zm-2660.69 1672.45c-3.75,0.4 -3.75,0.94 0,2.41 11.51,4.28 11.65,-4.15 0,-2.41z"/>
 </g>
</svg>
