<?xml version="1.0" encoding="UTF-8"?>
<!DOCTYPE svg PUBLIC "-//W3C//DTD SVG 1.1//EN" "http://www.w3.org/Graphics/SVG/1.1/DTD/svg11.dtd">
<!-- Creator: CorelDRAW -->
<svg xmlns="http://www.w3.org/2000/svg" xml:space="preserve" width="14in" height="15in" version="1.1" shape-rendering="geometricPrecision" text-rendering="geometricPrecision" image-rendering="optimizeQuality" fill-rule="evenodd" clip-rule="evenodd"
viewBox="0 0 14000 15000"
 xmlns:xlink="http://www.w3.org/1999/xlink"
 xmlns:xodm="http://www.corel.com/coreldraw/odm/2003">
 <g id="Layer_x0020_1">
  <metadata id="CorelCorpID_0Corel-Layer"/>
  <g id="_2046409588144">
   <path fill="#000000" d="M560.61 10529l0 2050.64c-0.4,106.43 0,212.86 1.2,319.15 4.55,76.84 56.76,144.17 133.6,172.31 76.84,28.09 164.26,11.87 223.57,-41.62 34.41,-36.44 48.06,-85.84 36.95,-133.09 -11.11,-47.39 -45.65,-87.02 -93.18,-106.7 -27.31,-10.04 -57.83,-8.57 -83.94,4.02 -25.97,12.58 -44.98,34.94 -51.94,61.44 -4.82,17.8 -5.62,36.41 -2.41,54.62 9.5,27.31 35.48,46.86 66.13,49.67 30.79,2.94 60.37,-11.25 75.64,-36.15 2.14,-2.54 4.69,-4.69 7.76,-6.29 1.07,-0.54 2.41,-0.27 3.08,0.54 2.14,2.94 3.35,6.29 3.35,9.77 0.27,28.52 -14.19,55.42 -38.82,72.29 -24.63,16.87 -56.49,21.69 -85.54,12.98 -38.96,-5.49 -73.76,-25.3 -96.66,-55.02 -22.89,-29.72 -31.99,-66.94 -25.17,-102.95l0.13 -2325.61 0.13 -5924.06 0 0 0.13 -2306.33c-0.67,-66 0,-132 1.87,-197.86 5.49,-46.45 37.62,-86.61 83.94,-104.69 46.19,-18.07 99.46,-11.38 138.82,17.67 15.4,15.8 23.03,36.95 21.02,58.23l-3.21 9.51c-0.8,0.8 -2.01,1.07 -3.08,0.67 -2.28,-1.07 -4.28,-2.55 -5.76,-4.56 -18.61,-33.6 -61.98,-48.19 -99.33,-33.46 -37.35,14.72 -56.36,53.68 -43.64,89.69 4.15,36.01 29.85,66.8 66.4,79.25 36.41,12.58 77.38,4.69 105.49,-20.35 58.37,-44.58 77.91,-119.81 47.93,-184.34 -29.98,-64.39 -102.14,-102.55 -176.84,-93.58 -61.71,1.07 -119.95,26.91 -159.71,70.95 -39.89,44.04 -57.3,102.01 -47.93,158.91l0 2434.04 0 5950.3z"/>
   <path fill="#000000" d="M5466.31 542.35l-3259.36 2.54c-73.36,13.52 -134,61.72 -159.84,127.31 -25.7,65.6 -12.98,138.96 33.74,193.44 37.89,36.55 92.5,53.41 146.19,45.25 53.68,-8.3 99.73,-40.56 123.03,-86.48 14.46,-29.72 11.51,-64.26 -7.9,-91.43 -19.54,-27.18 -52.74,-42.97 -87.69,-41.77 -27.71,-3.35 -55.15,7.36 -72.02,28.24 -16.87,20.75 -20.48,48.46 -9.24,72.29 9.11,15.53 21.96,29.05 37.35,39.49 1.47,1.34 1.87,3.35 1.2,5.22 -0.94,2.01 -2.94,3.61 -5.35,4.02 -30.52,0.13 -59.57,-13.12 -78.31,-35.61 -18.74,-22.49 -25.43,-51.94 -17.67,-79.52 3.61,-34.67 22.22,-66.53 51.54,-88.22 29.32,-21.55 66.94,-31.06 103.89,-26.37l3200.46 -0.13 1636.44 0 942.72 0 3728.04 2.14c46.85,6.16 88.35,35.07 107.1,76.31 18.74,41.23 14.72,88.89 -13.39,125.7 -18.74,20.21 -46.86,29.98 -74.97,25.57l-9.37 -2.81c-1.34,-0.27 -1.34,-0.94 -1.34,-1.47 0,-0.67 0,-1.34 1.34,-1.74 5.35,-3.21 12.05,-6.56 17.4,-10.04 34.81,-20.48 46.85,-62.92 28.11,-97.06 -20.08,-34.14 -64.26,-48.33 -103.08,-32.53 -32.13,5.49 -60.24,25.43 -73.63,53.55 -13.39,27.98 -10.71,60.51 5.35,86.88 40.16,64.26 123.16,93.31 199.47,69.48 74.97,-23.83 121.82,-93.98 112.45,-167.74 0,-57.43 -26.78,-112.19 -73.63,-149.54 -46.85,-37.48 -108.43,-53.81 -170.02,-44.98l-46.85 -0.13 -4575.72 0 -1428.13 0 -208.3 0.13z"/>
   <path fill="#000000" d="M13400.05 351.45c-69.61,87.02 -133.87,179.12 -188.76,275.37 -123.16,200.41 -287.82,376.18 -484.61,517.55 -137.89,89.02 -313.26,115.93 -475.24,73.49 -4.02,-0.54 -8.03,0.13 -10.71,1.88 -2.68,1.87 -4.02,4.95 -4.02,8.17 2.68,20.75 9.37,40.7 21.42,58.77 21.42,36.28 41.5,72.96 61.58,110.04 4.02,10.84 2.68,22.62 -1.34,33.07 -18.74,51 -22.76,105.22 -12.05,158.1 1.34,5.76 6.69,10.18 13.39,11.25 61.58,9.77 124.5,5.09 184.74,-13.93 10.71,-1.07 21.42,1.2 32.13,6.43 48.19,28.24 99.06,52.34 152.61,71.89 5.35,1.47 10.71,1.87 14.72,1.34 6.69,-0.67 10.71,-5.35 12.05,-11.11 -1.34,-9.24 -2.68,-18.34 -5.35,-27.04 -45.52,-198.93 28.11,-405.09 192.78,-539.1 167.34,-164.13 364.13,-300.81 579.66,-404.43 92.37,-41.37 171.35,-102.41 231.6,-178.05 36.14,-70.28 20.08,-153.95 -41.5,-207.5 -91.04,-52.34 -211.52,-28.78 -273.1,53.81z"/>
   <path fill="#000000" d="M12856.54 330.17c-26.78,72.29 -20.08,151.68 17.4,219.68 33.47,95.19 34.81,197.86 4.02,293.85l-2.68 12.85c1.34,3.08 4.02,5.35 8.03,5.49l5.35 -0.8c8.04,-3.75 14.73,-8.3 21.42,-13.66 124.5,-111.11 204.82,-259.04 224.9,-418.61 10.71,-57.7 -17.4,-115.53 -70.95,-146.85 -52.21,-31.19 -120.48,-29.99 -172.69,3.35 -13.39,12.98 -25.44,28.11 -34.81,44.71z"/>
   <path fill="#000000" d="M13400.05 861.64c-113.79,39.09 -215.53,103.48 -297.19,187.55 -2.68,3.48 -4.02,7.5 -5.35,11.65 -1.34,3.08 0,6.16 4.02,7.5 2.68,1.61 8.03,1.87 12.05,0.67 125.84,-36.01 261.05,-28.11 381.53,22.35 69.61,25.7 149.94,15.4 208.84,-27.31 48.2,-42.57 56.23,-111.25 20.08,-162.65 -34.81,-55.83 -103.08,-85.14 -170.02,-72.83 -53.55,2.94 -104.42,14.06 -153.95,33.07z"/>
   <path fill="#000000" d="M484.57 831.38c-64.52,-14.46 -132.67,0.13 -183.8,39.63 -54.76,54.08 -55.69,138.15 -2.14,193.31 63.99,43.91 148.06,52.88 221.02,23.69 117.14,-47.12 248.46,-54.08 370.42,-19.41 4.28,0.94 8.7,0.4 12.58,-1.34 2.94,-1.47 4.42,-4.55 3.61,-7.5 -1.34,-3.88 -3.61,-7.5 -6.43,-10.71 -109.77,-112.18 -255.29,-188.35 -415.27,-217.67z"/>
   <path fill="#000000" d="M883.24 341.01c-25.44,84.47 -15.8,174.97 26.91,253.28 42.3,100.67 109.5,190.77 195.98,262.79 4.15,2.81 8.97,4.55 14.06,4.82 3.35,0 6.29,-2.28 6.96,-5.35 0.4,-4.55 -0.13,-9.11 -1.87,-13.26 -37.22,-119.01 -27.31,-246.46 27.84,-359.17 22.22,-63.59 10.85,-133.2 -30.52,-187.82 -56.63,-46.99 -141.5,-48.59 -200.14,-3.75 -17.14,12.85 -30.52,29.45 -39.22,48.46z"/>
   <path fill="#000000" d="M472.65 13900.16c-70.28,-16.48 -144.45,4.44 -193.04,54.38 -29.85,48.28 -27.31,108.19 6.29,154.27 33.74,46.01 92.64,70.07 151.68,61.92 178.98,-16.84 344.58,-95.87 463.86,-221.37 3.08,-3.44 5.22,-7.57 6.16,-12.02 0.4,-2.99 -1.61,-5.76 -4.69,-6.54 -3.88,-0.95 -8.03,-0.84 -11.91,0.26 -130.79,35.09 -270.69,25.94 -394.92,-25.88 -7.76,-1.89 -15.53,-3.56 -23.43,-5.02z"/>
   <path fill="#000000" d="M1106.8 14228.87c5.22,-27.14 11.78,-54.02 19.68,-80.58 0.8,-3.4 0,-6.96 -2.41,-9.63 -0.94,-1.04 -2.28,-1.67 -3.75,-1.73 -2.28,-0.11 -4.42,0.32 -6.43,1.26 -66.4,48.26 -120.62,109.55 -158.91,179.52 -56.09,86.13 -85.94,184.86 -86.08,285.63 2.94,54.7 39.22,102.96 93.44,124.3 54.08,21.28 116.47,11.87 160.65,-24.26 39.22,-51.35 51.41,-116.52 33.33,-177.23 -33.07,-73.16 -51.28,-151.44 -53.55,-230.77 -0.67,-22.28 0.67,-44.5 4.02,-66.52z"/>
   <path fill="#000000" d="M7102.75 414.11l270.42 0 4989.38 1.87c167.34,23.16 286.48,163.72 270.42,320.62 5.35,96.39 -64.26,182.06 -164.66,204.56 -40.16,7.9 -83,6.56 -121.82,-4.02 -1.34,-0.54 -1.34,-1.47 -1.34,-2.54 0,-1.07 0,-2.01 1.34,-2.41 5.35,-1.88 12.05,-3.62 17.41,-5.36 96.39,-22.35 155.29,-112.72 131.19,-202.41 -22.76,-89.83 -119.15,-145.65 -215.53,-125.17 -76.31,2.28 -147.26,40.03 -188.76,100.81 -41.5,60.78 -46.85,136.55 -16.06,202.41 54.89,136.81 203.48,220.89 358.77,203.75 178.05,0.27 330.66,-118.48 361.45,-281.67 36.15,-151.81 -8.03,-310.18 -116.47,-427.45 -101.74,-103.61 -249,-157.3 -398.93,-145.52l-5176.8 -0.27 -213.12 0 -389.3 -0.13 -1034.02 0.67 -3813.85 2.41c-131.46,6.96 -254.22,63.46 -340.04,156.63 -85.81,93.04 -127.44,214.73 -115.26,336.95 -1.47,93.71 36.81,184.07 106.83,251.28 69.88,67.2 165.6,105.89 266,107.23 169.35,19.41 327.58,-82.6 367.74,-237.35 18.87,-63.19 5.49,-131.06 -36.41,-183.94 -41.9,-52.74 -107.77,-84.47 -178.19,-86.08 -96.52,-20.35 -192.64,35.34 -215.67,125.17 -23.16,89.7 35.61,180.06 131.46,202.68l17.94 5.76c1.07,0.54 1.74,1.47 1.74,2.54 0,1.07 -0.67,2.01 -1.74,2.54 -9.5,2.68 -19.15,4.42 -29.05,5.22 -61.18,13.52 -125.57,0.67 -175.37,-35.21 -49.67,-35.74 -79.39,-90.76 -80.72,-149.27 -23.3,-147.12 70.69,-288.49 222.36,-334.41 81.93,-10.17 164.66,-13.52 247.13,-9.91l5261.54 0z"/>
   <path fill="#000000" d="M12673.13 13976.13c-113.79,-86.12 -269.08,-108.34 -405.63,-58.25 -73.63,21.7 -135.21,70.54 -168.68,135.17 -48.19,77.87 -49.53,173.51 -4.02,252.59 74.97,89 203.48,120.06 314.6,75.56 65.59,-35.09 101.74,-104.63 88.35,-174.09 -13.39,-69.44 -70.95,-124.03 -145.92,-136.64l-17.4 -4.28c-1.34,-0.42 -1.34,-1.31 -1.34,-2.25 0,-1.1 0,-2.09 1.34,-2.61 4.02,-1.67 8.03,-2.57 12.05,-2.52 78.98,-18.82 163.32,0.57 224.91,51.67 61.58,74.62 78.98,172.78 48.19,262.19 -38.82,141.46 -184.74,233.55 -340.03,214.15l-4918.16 0.15 -861.06 -0.15 -4859.52 -2.57c-88.76,-12.76 -167.87,-59.45 -218.21,-128.91 -50.33,-69.39 -67.34,-155.25 -46.85,-236.89 8.97,-56.43 43.91,-106.41 95.58,-137 51.68,-30.61 115,-38.76 173.76,-22.44l11.52 3.97c1.34,0.94 1.61,2.72 0.67,4.07 -1.87,2.68 -4.69,4.71 -7.76,5.87 -28.25,5.27 -54.76,16.05 -78.18,31.58 -66.67,48.47 -88.22,133.82 -51.68,204.94 36.55,71.17 121.42,108.93 203.75,90.67 79.12,-2.97 151.14,-43.04 191.57,-106.52 40.3,-63.48 43.51,-141.67 8.43,-207.76 -58.37,-130.74 -202.68,-209.5 -353.42,-192.87 -102.28,2.1 -199.47,42.37 -269.62,111.81 -70.15,69.45 -107.37,162.26 -103.48,257.59 -9.78,132.25 42.7,262 143.78,355.23 101.21,93.24 240.83,140.72 382.6,130.11l5779.62 0 4753.9 0.16c129.85,11.19 259.71,-22.13 364.13,-93.65 190.1,-147.63 239.63,-399.69 120.48,-600.85 -18.74,-28.86 -41.5,-54.91 -68.28,-77.24z"/>
   <path fill="#000000" d="M11678.47 14140.86c-20.08,17 -32.13,40.79 -33.47,66.2 -1.34,25.43 8.03,50.36 25.44,69.29 18.74,18.88 44.18,30.28 70.95,31.59 28.11,1.24 54.89,-7.59 74.96,-24.69 14.73,-18.73 18.74,-42.88 12.05,-65.15 -6.7,-22.33 -25.44,-40.32 -48.2,-48.53l-10.71 -4.13c0,-0.52 -1.34,-1.37 -1.34,-2.2 0,-0.84 1.34,-1.67 1.34,-2.2 5.35,-3.19 12.05,-4.96 18.74,-5.13 34.81,-4.18 70.95,9.68 92.37,36.35 21.42,26.61 25.44,61.97 12.05,92.72 -16.06,71.27 -91.03,117.55 -167.34,103.75l-4564.47 0.36 -1214.88 -0.31 -3491.36 0c-78.72,1.15 -157.43,0 -236.02,-3.56 -45.25,-9.41 -82.33,-39.33 -98.93,-79.64 -16.6,-40.32 -10.44,-85.76 16.46,-120.9 16.2,-17 39.49,-26.63 63.86,-26.3 3.88,-0.11 7.63,1.04 10.84,3.13 0.94,0.74 1.61,1.94 1.47,3.13 0,1.58 -0.67,2.98 -1.87,4.08 -15.26,10.31 -27.98,23.48 -37.48,38.7 -12.31,27.76 -5.62,59.81 17.27,81.1 22.89,21.23 57.3,27.51 87.02,15.85 36.81,-7.79 66.27,-33.47 77.11,-67.15 10.84,-33.67 1.47,-70.23 -24.63,-95.59 -49.93,-54.18 -132.53,-70.39 -201.61,-39.53 -68.94,30.85 -107.23,101.02 -93.17,171.21 2.81,55.58 30.93,107.41 77.38,142.49 46.32,35.09 106.43,50.15 165.33,41.42l5461.14 -0.32c106.16,0.37 212.32,0.48 318.48,0.37l3656.02 -0.27c84.34,13.33 168.68,-19.34 218.21,-84.14 48.19,-74.62 44.18,-168.07 -9.37,-239.08 -32.13,-30.5 -77.65,-47.07 -123.16,-45.76 -46.85,1.35 -89.69,20.44 -120.48,52.81z"/>
   <path fill="#000000" d="M13412.1 14277.29c-235.61,-118.85 -444.45,-281.44 -611.79,-477.8 -97.72,-130.06 -129.85,-293.94 -85.68,-447.78 1.34,-4.24 1.34,-8.78 -1.34,-12.92 -1.34,-2.93 -5.35,-4.75 -9.37,-4.91 -8.03,-0.37 -17.4,1.26 -25.44,4.86 -52.21,21.7 -103.08,46.39 -152.61,73.9 -6.7,2.61 -14.73,3.29 -22.76,2.09l-12.05 -3.4c-54.89,-17 -113.79,-20.82 -171.35,-10.98 -6.7,1.15 -12.05,5.54 -13.39,11.34 -10.71,56.64 -5.35,114.74 14.73,168.96 1.34,19.88 -5.35,39.49 -18.74,55.18 -26.77,38.38 -48.19,80.69 -60.24,125.34 -1.34,3.66 0,7.47 1.34,10.98 1.34,2.93 4.02,4.8 6.69,4.96l6.69 -0.88c219.55,-47.18 449.81,21.75 599.74,179.57 175.37,155.21 321.29,336.98 431.06,537.52 44.18,86.81 112.45,161.96 195.45,218.91 72.29,32.94 157.97,19.87 215.53,-32.59 60.24,-79.74 42.84,-189.72 -40.16,-249.44 -74.97,-59.67 -157.97,-111.02 -246.32,-152.91z"/>
   <path fill="#000000" d="M12977.02 14218.41c-22.76,-28.45 -49.54,-53.86 -80.32,-75.56 -4.02,-2.73 -9.37,-4.35 -13.39,-4.66 -4.02,-0.16 -6.69,1.93 -6.69,4.91l-1.34 5.49c16.07,43.88 24.1,89.64 25.44,135.76 -1.34,83.15 -18.74,165.29 -53.55,241.74 -22.76,67.94 -4.02,141.98 49.54,192.55 54.89,30.12 123.16,27.3 175.37,-7.22 50.87,-34.57 76.31,-94.23 62.92,-152.12 -18.74,-125.04 -72.29,-243 -157.96,-340.9z"/>
   <path fill="#000000" d="M13400.05 13936.55c-88.35,22.65 -182.06,21.86 -270.42,-2.2 -8.03,-2.56 -16.06,-4.23 -24.09,-5.02 -2.68,-0.05 -5.35,0.9 -8.03,2.63 -1.34,1.19 -2.68,3.13 -2.68,5.02 2.68,7.94 6.7,15.21 13.39,20.86 117.81,117.19 274.44,192.44 445.79,212.57 60.24,12.19 123.16,-9.98 160.65,-56.57 36.14,-46.66 40.16,-109.09 9.37,-159.55 -61.58,-60.2 -157.97,-77.35 -240.97,-42.84 -26.78,9 -54.89,17.37 -83,25.1z"/>
   <path fill="#000000" d="M13579.44 10785.64l0 914.2c1.34,582.87 0,1165.75 -2.68,1748.56 -17.4,140.87 -141.9,249.28 -294.52,255.49 -92.37,11.3 -184.74,-23 -243.65,-90.56 -30.79,-51.19 -40.16,-111.65 -24.09,-168.81l4.02 -9.56c1.34,-0.9 2.68,-1.06 4.02,-0.43 1.34,0.9 2.68,2.41 4.02,4.19 8.03,45.38 34.81,85.87 74.97,112.01 41.5,26.2 91.03,35.77 139.22,26.56 48.19,-9.2 91.03,-36.44 117.81,-75.34 25.44,-38.86 33.47,-86.13 21.42,-130.74 -5.35,-76.72 -52.21,-145.22 -125.84,-180.94 -73.63,-35.72 -160.65,-33.57 -231.59,5.76 -128.52,58.93 -202.15,186.43 -186.08,318.46 1.34,94.39 42.84,184.38 115.13,250.18 73.63,65.78 171.35,101.92 271.76,100.5 259.71,19.51 489.97,-154 524.77,-394.65 1.34,-128.33 2.68,-256.61 1.34,-384.93l0 -10765.02c0,-267.61 -1.34,-535.22 -2.68,-802.96 -37.48,-223.57 -244.98,-387.56 -487.29,-384.21 -172.7,-11.11 -334.68,81.66 -400.28,230.53 -42.84,118.07 -25.44,247.8 46.85,352.35 78.98,104.69 226.24,142.7 352.08,91.03 109.78,-62.79 153.95,-190.5 103.08,-300.54 -36.15,-62.52 -111.11,-96.79 -187.42,-85.15 -74.96,11.65 -133.87,66.54 -147.26,136.82 0,2.54 -1.34,4.95 -4.02,6.83 0,0.4 -1.34,0.67 -1.34,0.54 0,0 -1.34,-0.4 -1.34,-0.8 -9.37,-18.34 -13.39,-38.29 -12.05,-58.37 -4.02,-53.42 14.73,-106.16 53.55,-145.79 38.82,-39.76 92.37,-62.92 149.93,-64.13 144.58,-17.27 283.81,54.09 345.39,176.85 21.42,79.12 29.45,160.91 22.76,242.17l0 9069.9z"/>
   <path fill="#000000" d="M13440.21 3294.21l-1.34 -1215.55c-10.71,-56.36 -46.85,-105.62 -99.07,-135.48 -52.21,-29.85 -116.46,-37.35 -175.37,-20.61 -66.93,16.87 -115.13,71.22 -120.48,135.88 -5.35,64.53 33.47,125.3 96.39,151.54 37.48,13.52 80.32,5.76 109.77,-19.95 29.45,-25.7 40.16,-64.79 28.11,-100.54 -9.37,-27.31 -36.15,-46.45 -66.94,-49.13 -30.79,-2.68 -60.24,11.78 -76.31,36.81l-2.68 4.02c-1.34,0.94 -2.68,1.47 -4.02,1.47 -1.34,0 -2.68,-0.4 -4.02,-1.34 -2.68,-2.55 -4.02,-5.89 -4.02,-9.37 0,-26.77 13.39,-52.07 36.15,-68.81 21.42,-16.74 50.87,-23.03 78.98,-17.14 38.82,0.8 76.31,17.54 101.74,45.92 25.44,28.25 36.15,65.33 29.45,101.74l0 9027.2 -1.34 1727.34c0,48.59 -30.79,92.64 -77.65,113.12 -48.19,20.48 -103.08,13.79 -143.24,-17.14 -16.07,-15.53 -24.1,-35.88 -24.1,-57.03 0,-3.75 1.34,-7.23 4.02,-10.04 1.34,-0.94 2.68,-1.2 4.02,-0.54 4.02,1.74 6.69,4.02 8.04,6.83 20.08,32.93 62.92,46.59 99.06,31.59 37.48,-14.99 56.22,-53.68 42.84,-89.29 -5.35,-38.02 -34.81,-69.48 -73.63,-80.46 -38.82,-11.11 -81.66,0.27 -109.78,29.05 -52.21,47.39 -66.93,121.02 -34.8,182.6 32.13,61.47 103.08,96.87 175.37,87.51 61.58,-1.15 120.48,-27.08 159.31,-71.04 40.16,-44.04 57.56,-101.88 48.19,-158.77l0 -318.88 -1.34 -1815.43 0 0 0 -7426.1 -1.34 0z"/>
   <path fill="#000000" d="M1370.13 1192.03c-99.6,-42.04 -187.96,-103.89 -258.78,-181.53 -160.11,-147.39 -293.85,-317.94 -396.12,-504.96 -45.11,-86.48 -112.05,-161.31 -195.05,-218.34 -76.31,-34.94 -168.41,-17.41 -223.83,42.84 -53.28,84.61 -27.18,193.31 59.7,248.73 100.41,70.55 206.43,133.87 317.28,189.16 202.55,112.31 381.26,258.5 527.19,431.2 95.58,123.43 129.45,279.26 92.77,427.72 -2.41,9.11 -4.42,18.34 -5.76,27.71 0,2.01 0.54,4.02 1.47,5.76 0.94,1.61 2.28,2.68 3.88,3.48 3.88,1.74 8.43,2.41 12.72,1.61 43.11,-13.25 84.34,-31.46 122.76,-54.22 18.88,-10.04 38.82,-18.47 59.31,-25.44 2.54,-0.4 5.22,-0.54 7.9,-0.27 5.35,0.54 10.71,1.34 16.06,2.68 56.23,17.54 116.47,21.28 174.7,10.71 3.08,-0.94 5.76,-3.08 7.23,-5.76 2.94,-7.1 4.95,-14.33 5.76,-21.82 6.43,-51.54 0.13,-103.61 -18.74,-152.35 -1.87,-11.65 0.94,-23.56 8.04,-33.33 31.19,-47.66 57.03,-98.26 77.37,-150.74 1.07,-4.02 0.8,-8.17 -0.54,-12.05 -1.47,-2.81 -4.42,-4.82 -7.76,-5.22 -4.69,-0.54 -9.5,-0.27 -13.92,0.94 -123.96,33.47 -256.63,24.1 -373.63,-26.5z"/>
   <path fill="#000000" d="M1685.79 13400.76c-45.65,-10.56 -93.57,-9.79 -138.82,2.3 -15.53,3.81 -31.06,7.68 -46.59,11.71 -5.35,0.88 -10.84,0.41 -15.8,-1.47 -56.23,-27.08 -113.12,-53.03 -170.56,-77.75 -6.83,-2.2 -14.32,-2.2 -21.15,0 -1.61,0.68 -2.94,1.83 -3.88,3.29 -1.07,1.78 -1.61,3.81 -1.61,5.85 4.28,23.86 9.24,47.54 14.86,71.13 24.77,187.47 -51.27,374.21 -203.35,499.03 -161.05,157.04 -348.73,288.35 -555.43,388.75 -99.6,42.84 -186.48,107.73 -253.02,189.09 -40.83,71.9 -22.49,160.59 44.18,213.2 92.1,47.18 207.5,22.02 267.61,-58.3 75.5,-93.82 142.98,-193.12 201.74,-296.87 121.42,-186.37 276.98,-351.36 459.71,-487.53 140.7,-95.07 320.35,-125.09 487.83,-81.53 3.75,0.63 7.63,0.06 10.98,-1.72 2.94,-1.98 4.42,-5.28 4.15,-8.57 -0.67,-9.48 -3.21,-18.73 -7.5,-27.31 -22.49,-48.42 -47.93,-95.74 -75.91,-141.67 -3.75,-10.81 -3.35,-22.58 1.07,-33.15 17.94,-48.37 22.63,-100.15 13.66,-150.6l-4.02 -12.76c-0.54,-0.74 -1.2,-1.37 -2.01,-1.83 -2.01,-1.26 -4.02,-2.35 -6.16,-3.29z"/>
   <path fill="#000000" d="M253.24 10529l0 1445.81c-1.07,502.28 0,1004.57 3.21,1506.73 35.61,219.63 237.48,382.41 475.64,383.62 162.92,15.22 319.69,-62.44 397.46,-196.88 54.75,-116.67 49,-250.38 -15.53,-362.6 -31.33,-43.24 -73.23,-78.91 -122.22,-104 -53.55,-32.95 -119.28,-44.09 -181.93,-30.86 -62.65,13.28 -116.6,49.79 -149.67,101.09 -44.18,66.46 -51.14,148.77 -18.74,220.83 30.26,54.29 90.5,88.33 156.09,88.28 65.59,-0.11 125.7,-34.36 155.83,-88.74 10.44,-14.48 17.94,-30.75 21.69,-47.84l3.35 -8.8c0.54,-0.58 1.34,-0.94 2.28,-0.94 0.94,0.05 1.87,0.41 2.68,1.09 4.15,4.97 7.23,10.78 8.84,16.95 9.1,54.18 1.87,109.6 -20.75,160.22 -4.02,7.43 -9.91,13.93 -17.13,18.89 -107.23,89.32 -265.74,99.92 -385.55,25.73 -101.47,-57.95 -158.5,-164.68 -147.12,-275.01l-0.13 -2853.56 0 -7163.57 0.13 -736.83c-1.34,-359.44 -0.13,-719.02 3.88,-1078.46 15.53,-104.29 89.16,-193.18 193.31,-233.61 104.29,-40.56 223.83,-26.78 314.2,36.41 58.91,56.22 78.45,138.82 50.47,212.99 -0.54,0.94 -1.74,1.47 -2.94,1.47 -1.2,0 -2.28,-0.54 -2.81,-1.61 -3.61,-9.1 -6.83,-18.34 -9.64,-27.71 -16.46,-53.95 -60.64,-96.79 -117.81,-114.46 -48.19,-8.03 -97.99,-1.2 -141.77,19.28 -71.22,40.83 -105.63,120.08 -85.01,195.59 7.23,68.41 48.86,129.59 112.05,164.8 63.32,35.34 140.83,40.56 208.84,14.06 150.87,-52.07 242.84,-194.78 221.43,-343.51 -6.96,-183.94 -165.2,-331.6 -362.39,-338.16 -202.68,-19.68 -398.54,74.17 -499.34,239.23 -44.44,85.28 -61.98,180.59 -50.87,274.84l0 8879.27z"/>
  </g>
 </g>
</svg>
