<?xml version="1.0" encoding="UTF-8"?>
<!DOCTYPE svg PUBLIC "-//W3C//DTD SVG 1.1//EN" "http://www.w3.org/Graphics/SVG/1.1/DTD/svg11.dtd">
<!-- Creator: CorelDRAW -->
<svg xmlns="http://www.w3.org/2000/svg" xml:space="preserve" width="2in" height="2.5in" version="1.1" shape-rendering="geometricPrecision" text-rendering="geometricPrecision" image-rendering="optimizeQuality" fill-rule="evenodd" clip-rule="evenodd"
viewBox="0 0 2000 2500"
 xmlns:xlink="http://www.w3.org/1999/xlink"
 xmlns:xodm="http://www.corel.com/coreldraw/odm/2003">
 <g id="Layer_x0020_1">
  <metadata id="CorelCorpID_0Corel-Layer"/>
  <path fill="black" d="M891.58 2479.99c-54.89,-57.83 -111.11,-183.94 -22.76,-233.07 81.66,-45.38 164.66,-43.78 251.68,-51.54 84.34,-7.63 166,-10.98 250.34,-16.33 85.68,-5.49 164.66,-24.1 249,-37.89 186.08,-30.26 349.4,-167.47 356.09,-354.22 5.36,-183 -124.5,-349.94 -322.63,-358.51 -22.76,-0.94 -36.15,-1.74 -58.91,3.08 -25.43,5.36 -41.5,10.31 -62.92,29.85 -17.41,17.67 18.74,21.42 36.14,27.44 20.08,6.83 41.5,16.73 61.58,27.31 89.69,47.53 167.34,123.7 200.81,217.94 29.45,82.87 13.39,182.46 -58.91,240.17 -70.95,58.23 -159.3,86.75 -249,105.62 -163.32,34.94 -336.02,38.29 -499.34,64.53 -88.35,14.32 -191.43,38.96 -231.59,123.16 -40.16,84.74 28.11,179.79 96.39,231.06 9.37,6.56 10.71,-11.24 4.02,-18.61l0 0zm16.06 -353.42c5.36,-1.87 13.39,-4.69 14.73,-4.55 0,0.13 -10.71,-7.76 -16.07,-6.29 -314.59,77.65 -692.11,-76.31 -785.82,-389.3 -46.85,-158.1 29.45,-338.43 203.48,-369.75 171.35,-30.79 322.63,177.65 196.79,310.31 -6.69,5.76 -12.05,3.48 -13.39,11.24 -1.34,7.63 5.35,1.2 13.39,-1.34 104.42,-36.95 131.19,-153.81 93.71,-244.72 -38.82,-96.25 -136.55,-163.59 -243.65,-168.54 -103.08,-4.82 -208.84,21.42 -278.45,98.4 -68.28,75.24 -93.71,170.69 -92.37,268.68 2.68,211.38 155.29,401.08 353.42,482.2 174.03,71.09 376.18,71.62 554.22,13.65l0 0zm373.5 -1359.19c17.4,1.61 25.43,-7.09 21.42,-23.83 -1.34,-11.92 -9.37,-13.12 -21.42,-13.79 -17.41,-0.94 -26.78,-3.21 -45.52,-3.21 -24.09,0.13 -30.79,27.04 -6.69,34 21.42,6.29 32.13,4.82 52.21,6.83l0 0zm-36.15 -65.06c17.4,6.56 28.11,4.82 45.52,6.56 13.39,1.47 22.76,-2.54 24.09,-16.74 1.34,-17 -8.03,-23.56 -24.09,-22.89 -14.73,0.54 -21.42,-0.27 -36.15,-0.13 -21.42,0.13 -29.45,25.43 -9.37,33.2l0 0zm204.82 1220.5c103.08,-127.04 116.46,-306.16 26.77,-447.8 89.69,-60.24 172.69,-178.72 115.13,-282.73 -57.56,-105.89 -215.53,-129.59 -301.21,-41.77 -10.71,10.98 -21.42,11.51 -14.73,-1.2 88.36,-162.92 112.45,-348.33 72.29,-526.78 -4.02,-15.53 -16.06,-26.51 -32.13,-8.57 -5.35,7.5 -8.03,8.84 -5.35,17.54 6.69,16.87 -6.69,21.95 -20.08,21.55 -30.79,-1.2 -64.26,-3.75 -85.68,20.22 1.34,11.24 -6.7,15.93 2.68,27.71 12.05,17 -18.74,10.04 -22.76,25.57 -13.39,57.83 77.65,54.89 113.79,69.35 6.69,197.46 -93.71,378.45 -196.79,539.77 -105.76,166 -240.97,350.74 -157.97,556.37 5.35,13.12 8.03,13.12 6.69,-0.67 -54.89,-288.89 203.48,-490.1 314.6,-722.37 66.94,-14.72 132.53,-27.04 194.11,0.8 20.08,8.7 37.48,19.28 46.85,36.95 38.82,71.09 -16.06,171.62 -99.06,180.59 -78.98,8.44 -153.95,-21.15 -232.94,11.78 160.65,40.7 246.32,210.31 234.28,361.05 -6.7,82.2 -54.89,163.86 -136.55,200.94 -68.27,31.33 -135.21,34.14 -214.19,31.06 -175.37,-6.83 -285.15,-169.21 -293.18,-327.05 -8.03,-141.77 6.69,-284.48 44.18,-422.23 1.34,-6.83 4.02,-17.14 -4.02,-15.53 -9.37,1.74 -5.35,12.72 -10.71,17.81 -251.68,236.95 -163.32,722.5 182.06,820.63 176.71,50.2 364.13,-6.83 473.91,-142.98l0 0zm436.42 -542.44c49.53,-21.02 115.13,-46.19 113.79,-106.43 -45.52,-28.11 -83,15.66 -120.48,34.27 -37.48,18.34 -87.02,28.52 -124.5,3.21 -22.76,-15.66 -32.13,-41.37 -33.47,-68.14 -1.34,-47.26 2.68,-93.31 -42.84,-131.33 -100.4,66.8 -52.21,228.65 49.53,272.02 48.2,20.75 111.11,16.87 157.97,-3.61l0 0zm-50.87 -92.24c97.72,25.97 135.21,-132 36.15,-151.81 -96.39,-19.28 -131.19,126.78 -36.15,151.81l0 0zm-1357.45 -69.88c42.84,-36.81 76.31,-78.98 87.02,-131.33 9.37,-41.37 20.08,-88.22 -17.4,-119.41 -68.28,25.57 -115.13,84.2 -144.58,146.46 -6.69,12.85 5.35,32.26 20.08,22.76 21.42,-13.12 33.46,-19.54 45.52,-41.37 10.71,-19.81 37.48,-9.24 29.45,8.7 -18.74,44.72 -58.9,71.22 -100.4,87.82 -22.76,9.37 -58.9,-2.68 -72.29,-20.08 -81.66,-101.2 -34.81,-340.03 125.84,-335.21 16.07,0.4 26.78,25.57 29.45,38.15 5.35,19.54 4.02,43.64 -4.02,70.15 -5.35,18.34 16.06,19.81 26.78,4.95 24.09,-35.74 38.82,-70.28 38.82,-111.38 0,-19.55 -6.7,-36.95 -21.42,-50.87 -4.02,-4.69 -8.03,-7.9 -14.72,-11.25 -8.04,-3.48 -9.37,-4.15 -16.07,-6.29 -107.09,-32.13 -206.16,38.82 -244.98,129.99 -34.81,81.93 -44.18,170.29 -14.72,258.51 32.13,96.92 170.02,126.91 247.66,59.7l0 0zm420.35 38.82c20.08,5.35 33.47,-12.98 25.44,-30.79 -16.07,-31.06 -28.11,-56.49 -41.5,-86.48 -4.02,-7.76 -13.39,-10.44 -16.07,-17.4 -1.34,-5.22 6.7,-10.44 1.34,-17 -13.39,-16.33 8.04,-29.45 6.7,-43.51 -2.68,-16.06 -25.44,13.79 -38.82,18.74 -9.37,3.48 -24.1,10.71 -36.15,14.99 -16.07,5.76 -36.15,7.63 -53.55,5.89 -8.03,-0.67 -1.34,16.6 9.37,14.73 20.08,-3.88 22.76,23.69 36.15,28.38 18.74,6.03 41.5,-3.21 61.58,-15.53 10.71,-7.09 18.74,6.02 2.68,11.65 -17.4,5.76 -20.08,12.32 -38.82,13.79 -21.42,1.61 -18.74,15.26 -9.37,28.38 24.1,34 46.85,62.79 91.03,74.17l0 0zm-239.63 -125.7c100.41,-106.96 56.23,-261.18 -17.4,-363.33 -74.97,-103.88 -187.42,-231.86 -119.15,-359.18 33.47,-64.52 112.45,-93.31 179.39,-69.74 65.6,23.29 99.07,100.4 88.36,165.06 -2.68,17.4 -5.36,31.46 -17.41,52.74 -12.05,21.42 -24.09,2.94 -37.48,-9.77 -21.42,-22.36 -70.95,-17.27 -84.34,16.6 -25.43,63.06 65.6,104.69 123.16,74.03 129.85,-69.88 95.05,-269.35 -20.08,-345.79 -112.45,-73.63 -294.52,-12.72 -323.97,125.44 -57.57,277.11 388.22,425.04 214.19,721.83 -8.03,14.46 4.02,2.54 14.72,-7.9l0 0zm722.91 -59.7c125.84,-103.62 333.34,-145.79 393.58,-310.45 26.77,-75.64 -18.74,-163.59 -93.71,-189.16 -70.95,-24.09 -152.61,-19.68 -214.19,23.96 -13.39,9.91 -24.1,23.03 -34.81,33.74 -14.72,13.52 -16.06,53.95 0,38.56 32.13,-29.45 69.61,-44.31 107.1,-52.07 73.63,-15 175.37,30.12 170.02,109.64 -5.35,87.15 -88.35,137.76 -151.28,191.44 -58.9,51.27 -129.85,91.83 -188.76,150.07 -9.37,8.7 2.68,11.51 12.05,4.28l0 0zm-285.15 -87.02c5.35,-12.85 8.03,-17.14 12.05,-25.17 10.71,-20.62 8.04,-43.51 -5.35,-61.72 -13.39,-18.07 -28.11,-30.25 -50.87,-42.17 -9.37,-5.62 -6.69,4.69 4.02,9.37 17.4,7.63 28.11,19.28 37.48,33.06 10.71,15.13 22.76,29.05 8.03,51.14 -14.72,-19.28 -29.45,-44.18 -50.87,-59.98 -40.16,-27.57 -88.35,-42.84 -112.45,-87.28 -6.69,-11.11 -6.69,-15.26 -6.69,0.27 0,26.64 26.78,32.67 29.45,53.55 2.68,18.21 4.02,35.07 12.05,51.81 10.71,25.57 33.47,43.24 57.56,56.63 21.42,11.91 53.55,3.08 65.6,20.48l0 0zm50.87 -12.32c4.02,-1.74 5.35,-8.3 8.03,-13.52 28.11,-49.8 8.04,-111.38 -33.46,-147.93 -24.1,-21.82 -50.87,-40.43 -81.66,-54.89 -24.1,-11.11 -44.18,-23.03 -72.29,-28.65 -18.74,-3.88 16.06,14.33 28.11,19.55 10.71,4.02 24.09,12.85 34.8,19.54 25.44,15 50.87,34.27 70.95,55.83 33.47,36.28 54.89,88.35 42.84,136.55 -1.34,5.49 0,15.26 2.68,13.52l0 0zm-115.13 -124.63c6.7,2.68 6.7,-0.67 0,-4.28 -8.03,-4.69 -10.71,-3.08 -18.74,-8.7 -10.71,-7.9 -13.39,-1.07 -1.34,2.94 10.71,3.21 12.05,6.29 20.08,10.04l0 0zm195.45 -257.83c42.84,-8.03 85.68,-21.42 124.5,-39.09 36.15,-16.46 77.65,-41.5 76.31,-84.07 -28.11,-36.01 -70.95,-11.65 -103.08,6.16 -36.15,20.08 -74.97,38.02 -115.13,50.74 -76.31,23.43 -153.95,14.33 -234.28,27.31 -18.74,3.08 -17.4,31.73 1.34,38.02 83,27.04 168.68,16.46 250.34,0.94l0 0zm-72.29 -116.33c80.32,-18.87 192.78,-34 208.84,-130.12 -87.02,-32.26 -145.92,51.54 -224.91,66.27 -73.63,13.92 -147.26,19.41 -224.9,22.35 -18.74,0.8 -26.78,30.66 -10.71,37.22 78.98,30.93 172.7,22.63 251.68,4.28l0 0zm-62.92 -111.92c80.32,-19.54 191.44,-34.54 206.16,-130.12 -87.02,-31.06 -144.58,49.67 -222.22,66.27 -77.65,16.46 -153.95,16.87 -234.28,25.3 -18.74,1.87 -16.07,32 1.34,37.62 78.98,26.64 171.35,19.81 249,0.94l0 0zm10.71 -116.6c45.52,-42.97 36.15,-129.85 -26.77,-152.88 -9.37,-3.48 -17.41,-5.49 -26.78,-5.76 -9.37,-0.13 -17.41,0.67 -25.44,3.35 -8.03,2.14 -13.39,3.75 -20.08,7.5 -13.39,6.83 -18.74,14.99 -25.44,27.71 -16.06,32.26 12.05,66.4 41.5,69.48 8.03,0.8 -8.03,14.86 -16.06,17.27 -21.42,7.5 -54.89,1.87 -70.95,-18.88 -10.71,-12.18 -12.05,-29.05 -5.35,-43.24 13.39,-30.12 33.47,-55.96 48.19,-85.94 6.69,-16.87 5.35,-37.22 -8.03,-50.47 -17.41,-15.4 -42.84,-17.14 -61.58,-6.02 -29.45,17.54 -54.89,41.77 -74.96,69.21 24.09,18.48 48.19,7.77 68.27,-13.65 14.73,-14.59 30.79,6.96 17.41,18.48 -42.84,37.88 -76.31,92.5 -50.87,145.65 13.39,26.91 40.16,41.77 66.94,48.73 57.56,14.73 125.84,10.98 170.02,-30.52l0 0z"/>
 </g>
</svg>
